<?xml version="1.0" encoding="UTF-8" standalone="no"?>
<!-- Created with Inkscape (http://www.inkscape.org/) -->

<svg
   xmlns:dc="http://purl.org/dc/elements/1.1/"
   xmlns:cc="http://creativecommons.org/ns#"
   xmlns:rdf="http://www.w3.org/1999/02/22-rdf-syntax-ns#"
   xmlns:svg="http://www.w3.org/2000/svg"
   xmlns="http://www.w3.org/2000/svg"
   xmlns:sodipodi="http://sodipodi.sourceforge.net/DTD/sodipodi-0.dtd"
   xmlns:inkscape="http://www.inkscape.org/namespaces/inkscape"
   width="317.5mm"
   height="166.6875mm"
   viewBox="0 0 317.5 166.6875"
   version="1.1"
   id="svg8"
   inkscape:version="0.92.5 (2060ec1f9f, 2020-04-08)"
   sodipodi:docname="og_image.svg">
  <defs
     id="defs2" />
  <sodipodi:namedview
     id="base"
     pagecolor="#ffffff"
     bordercolor="#666666"
     borderopacity="1.0"
     inkscape:pageopacity="0.0"
     inkscape:pageshadow="2"
     inkscape:zoom="0.70710678"
     inkscape:cx="640.85713"
     inkscape:cy="184.1515"
     inkscape:document-units="mm"
     inkscape:current-layer="layer1"
     showgrid="false"
     inkscape:window-width="2488"
     inkscape:window-height="1376"
     inkscape:window-x="72"
     inkscape:window-y="27"
     inkscape:window-maximized="1"
     fit-margin-top="0"
     fit-margin-left="0"
     fit-margin-right="0"
     fit-margin-bottom="0" />
  <metadata
     id="metadata5">
    <rdf:RDF>
      <cc:Work
         rdf:about="">
        <dc:format>image/svg+xml</dc:format>
        <dc:type
           rdf:resource="http://purl.org/dc/dcmitype/StillImage" />
        <dc:title />
      </cc:Work>
    </rdf:RDF>
  </metadata>
  <g
     inkscape:label="Layer 1"
     inkscape:groupmode="layer"
     id="layer1"
     transform="translate(84.666664,-48.556248)">
    <rect
       style="opacity:1;fill:#111827;fill-opacity:1;stroke-width:0.26458332"
       id="rect815"
       width="317.5"
       height="166.6875"
       x="-84.666664"
       y="48.556248"
       inkscape:export-filename="./og_image.png"
       inkscape:export-xdpi="96"
       inkscape:export-ydpi="96" />
    <rect
       y="48.556248"
       x="-9.2604141"
       height="166.6875"
       width="166.688"
       id="rect847"
       style="opacity:1;fill:#111827;fill-opacity:1;stroke-width:0.26458371" />
    <g
       id="g906"
       transform="translate(0,-0.52937868)">
      <path
         style="fill:#10b981;fill-opacity:1;stroke-width:0.58754337"
         inkscape:connector-curvature="0"
         d="m 24.178507,95.634985 a 1.4218549,1.4218549 0 0 0 -1.421854,1.421828 V 118.0674 a 1.4218549,1.4218549 0 0 0 1.421854,1.41599 h 20.493514 a 24.406551,24.406551 0 0 0 7.050521,5.50528 v 5.2644 H 41.675549 v -4.12456 h 2.667447 v -2.18568 h -3.425378 a 1.4218549,1.4218549 0 0 0 -1.421854,1.42187 v 5.65217 a 1.4218549,1.4218549 0 0 0 1.421854,1.41599 h 11.574606 a 1.4218549,1.4218549 0 0 0 1.410102,-1.41599 v -5.01176 a 34.418292,34.418292 0 0 0 8.613385,2.28556 l 0.293773,-2.16216 c -3.525262,-0.48766 -6.462976,-1.38662 -8.90128,-2.50293 V 97.056813 a 1.4218549,1.4218549 0 0 0 -1.421857,-1.421828 z m 2.42068,2.179767 H 50.071543 L 38.332428,108.88409 Z m -1.656873,1.43948 7.685069,7.250318 -7.696821,8.94828 z m 26.791977,0 v 23.243248 c -6.874256,-3.81904 -8.866028,-9.45946 -8.977662,-9.78259 0,0 -0.669801,2.36193 0.487661,4.58871 H 26.223159 l 7.996467,-9.30082 3.143354,2.96124 a 1.4101041,1.4101041 0 0 0 1.94477,0 z m -4.341944,11.515888 a 1.6451215,1.6451215 0 1 0 0,3.29023 1.6451215,1.6451215 0 0 0 0,-3.29023 z"
         id="path836" />
      <flowRoot
         transform="matrix(0.79771572,0,0,0.79771572,-195.11397,59.200207)"
         style="font-style:normal;font-weight:normal;font-size:40px;line-height:1.25;font-family:sans-serif;letter-spacing:0px;word-spacing:0px;fill:#10b981;fill-opacity:1;stroke:none"
         id="flowRoot849"
         xml:space="preserve"><flowRegion
           style="fill:#10b981;fill-opacity:1"
           id="flowRegion851"><rect
             style="fill:#10b981;fill-opacity:1"
             y="38"
             x="315"
             height="58"
             width="100.99999"
             id="rect853" /></flowRegion><flowPara
           style="font-style:normal;font-variant:normal;font-weight:300;font-stretch:normal;font-size:40px;font-family:'Inter V';-inkscape-font-specification:'Inter V, Light';font-variant-ligatures:normal;font-variant-caps:normal;font-variant-numeric:normal;font-feature-settings:normal;text-align:start;writing-mode:lr-tb;text-anchor:start;fill:#10b981;fill-opacity:1"
           id="flowPara855">Keila</flowPara></flowRoot>      <flowRoot
         xml:space="preserve"
         id="flowRoot883"
         style="font-style:normal;font-weight:normal;font-size:40px;line-height:1.25;font-family:sans-serif;letter-spacing:0px;word-spacing:0px;fill:#10b981;fill-opacity:1;stroke:none"
         transform="matrix(0.35953925,0,0,0.35953925,-103.33731,123.53614)"><flowRegion
           id="flowRegion879"
           style="fill:#10b981;fill-opacity:1"><rect
             id="rect877"
             width="354.80258"
             height="134.52826"
             x="315"
             y="38"
             style="fill:#10b981;fill-opacity:1" /></flowRegion><flowPara
           id="flowPara881"
           style="font-style:normal;font-variant:normal;font-weight:600;font-stretch:normal;font-size:39.99980927px;font-family:'Inter V';-inkscape-font-specification:'Inter V, Semi-Bold';font-variant-ligatures:normal;font-variant-caps:normal;font-variant-numeric:normal;font-feature-settings:normal;text-align:center;writing-mode:lr-tb;text-anchor:middle;fill:#10b981;fill-opacity:1">Open Source Newsletters</flowPara></flowRoot>    </g>
  </g>
</svg>
